<svg xmlns="http://www.w3.org/2000/svg">
  <symbol id="pencil" viewBox="0 0 24 24" fill="none">
    <path
      d="M8.64709 19.6892L4.125 20.3963L4.83211 15.8532L16.6613 3.85352L20.6471 7.83902L8.64709 19.6892Z"
      stroke="black" stroke-width="1.5" stroke-linecap="round" />
    <path d="M13.8115 6.85352L17.6473 10.6893" stroke="black" stroke-width="1.5"
      stroke-linecap="round" />
  </symbol>
  <symbol id="support" viewBox="0 0 24 24" fill="none">
    <path d="M3 21.5V5.25L21 5.25003V18.75H7.73438L3 21.5Z" stroke="black" stroke-width="1.5"
      stroke-linecap="round" />
    <path
      d="M12 13.125C12.6213 13.125 13.125 12.6213 13.125 12C13.125 11.3787 12.6213 10.875 12 10.875C11.3787 10.875 10.875 11.3787 10.875 12C10.875 12.6213 11.3787 13.125 12 13.125Z"
      fill="black" />
    <path
      d="M7.5 13.125C8.12132 13.125 8.625 12.6213 8.625 12C8.625 11.3787 8.12132 10.875 7.5 10.875C6.87868 10.875 6.375 11.3787 6.375 12C6.375 12.6213 6.87868 13.125 7.5 13.125Z"
      fill="black" />
    <path
      d="M16.5 13.125C17.1213 13.125 17.625 12.6213 17.625 12C17.625 11.3787 17.1213 10.875 16.5 10.875C15.8787 10.875 15.375 11.3787 15.375 12C15.375 12.6213 15.8787 13.125 16.5 13.125Z"
      fill="black" />
  </symbol>
  <symbol id="admin-line" viewBox="0 0 24 24" fill="none">
    <g clip-path="url(#clip0_445_14949)">
      <path
        d="M9.78694 9.8732C8.89532 9.8732 8.02374 9.60872 7.28248 9.11322C6.54121 8.61773 5.96359 7.91349 5.62269 7.08962C5.28178 6.26574 5.19293 5.35926 5.36736 4.48487C5.54179 3.61048 5.97167 2.80748 6.60261 2.17748C7.23354 1.54748 8.03718 1.11879 8.91182 0.945648C9.78647 0.772511 10.6928 0.86271 11.5162 1.20483C12.3396 1.54695 13.0429 2.12562 13.5373 2.86761C14.0317 3.60961 14.2949 4.48158 14.2936 5.3732C14.2901 6.56674 13.8139 7.7103 12.9693 8.55364C12.1247 9.39698 10.9805 9.87144 9.78694 9.8732ZM9.78694 2.19987C9.15931 2.19987 8.54578 2.38598 8.02393 2.73467C7.50208 3.08336 7.09534 3.57897 6.85516 4.15882C6.61498 4.73867 6.55213 5.37672 6.67458 5.99229C6.79702 6.60785 7.09925 7.17329 7.54305 7.61708C7.98685 8.06088 8.55228 8.36311 9.16785 8.48556C9.78342 8.608 10.4215 8.54516 11.0013 8.30498C11.5812 8.06479 12.0768 7.65806 12.4255 7.13621C12.7742 6.61436 12.9603 6.00082 12.9603 5.3732C12.9603 4.53158 12.6259 3.72443 12.0308 3.12931C11.4357 2.5342 10.6286 2.19987 9.78694 2.19987Z"
        fill="black" />
      <path
        d="M10.9464 21.1199C10.8007 20.9741 10.6883 20.7985 10.6169 20.6052C10.5456 20.4118 10.517 20.2053 10.5331 19.9999H2.66639V16.1465C3.61166 15.1379 4.7582 14.339 6.03179 13.8015C7.30538 13.2641 8.67763 13 10.0597 13.0265H10.5397C10.5091 12.803 10.5305 12.5754 10.6022 12.3615C10.6739 12.1476 10.794 11.9531 10.9531 11.7932L11.0331 11.7199C10.7197 11.7199 10.3664 11.6799 10.0597 11.6799C8.43333 11.6412 6.81867 11.9645 5.33251 12.6263C3.84634 13.2881 2.39248 14.2409 1.33306 15.4756C1.33316 15.9065 1.33306 15.7623 1.33306 15.9065V19.9999C1.33306 20.3535 1.33304 19.9999 1.33301 21.3332C2.66639 21.3332 2.31277 21.3332 2.66639 21.3332H11.1331L10.9464 21.1199Z"
        fill="black" />
      <path
        d="M17.9131 10.8601C17.9461 10.8533 17.9801 10.8533 18.0131 10.8601C17.98 10.8541 17.9461 10.8541 17.9131 10.8601Z"
        fill="black" />
      <mask id="path-4-inside-1_445_14949" fill="white">
        <path
          d="M22.4532 15.546L21.1198 15.1393C21.0245 14.8132 20.8949 14.4981 20.7332 14.1993L21.3998 12.9593C21.4215 12.9097 21.4268 12.8545 21.4148 12.8017C21.4028 12.7489 21.3742 12.7014 21.3332 12.666L20.3665 11.6993C20.33 11.6598 20.2811 11.6336 20.2279 11.6252C20.1747 11.6167 20.1202 11.6264 20.0732 11.6527L18.8465 12.3193C18.5445 12.1495 18.2248 12.0132 17.8932 11.9127L17.4865 10.5793C17.4693 10.5303 17.4365 10.4881 17.3932 10.4593C17.3499 10.4304 17.2985 10.4164 17.2465 10.4193H15.8798C15.8273 10.4187 15.7761 10.4353 15.734 10.4667C15.6918 10.498 15.6611 10.5422 15.6465 10.5927L15.2398 11.926C14.9059 12.0231 14.5839 12.1573 14.2798 12.326L13.0665 11.6593C13.0205 11.6336 12.9671 11.6241 12.915 11.6326C12.863 11.6411 12.8153 11.667 12.7798 11.706L11.7932 12.666C11.7566 12.7045 11.7331 12.7536 11.7259 12.8062C11.7187 12.8589 11.7282 12.9124 11.7532 12.9593L12.4198 14.1727C12.2435 14.4732 12.1026 14.7931 11.9998 15.126L10.6665 15.526C10.6161 15.5406 10.5718 15.5713 10.5405 15.6134C10.5092 15.6556 10.4926 15.7068 10.4932 15.7593V17.126C10.4971 17.1742 10.5159 17.2199 10.547 17.2569C10.578 17.2939 10.6198 17.3204 10.6665 17.3327L11.9998 17.7393C12.0984 18.0664 12.2325 18.3816 12.3998 18.6793L11.7332 19.9527C11.7077 19.9983 11.6979 20.051 11.7051 20.1027C11.7123 20.1544 11.7362 20.2024 11.7732 20.2393L12.7398 21.206C12.7776 21.2437 12.8263 21.2685 12.879 21.2768C12.9316 21.2852 12.9856 21.2768 13.0332 21.2527L14.2798 20.586C14.5765 20.7456 14.8894 20.873 15.2132 20.966L15.6132 22.2993C15.6296 22.3487 15.6608 22.3918 15.7025 22.4228C15.7443 22.4538 15.7945 22.4712 15.8465 22.4727H17.2132C17.2654 22.4722 17.3162 22.4552 17.3581 22.424C17.4 22.3929 17.431 22.3492 17.4465 22.2993L17.8532 20.9327C18.1727 20.8395 18.4811 20.7121 18.7732 20.5527L20.0332 21.2193C20.0795 21.2439 20.1326 21.2527 20.1844 21.2443C20.2361 21.2359 20.2837 21.2107 20.3198 21.1727L21.3332 20.266C21.3604 20.2269 21.375 20.1803 21.375 20.1327C21.375 20.085 21.3604 20.0385 21.3332 19.9993L20.6665 18.746C20.8284 18.4519 20.958 18.1412 21.0532 17.8193L22.3865 17.4127C22.437 17.3981 22.4812 17.3674 22.5125 17.3252C22.5438 17.2831 22.5605 17.2318 22.5598 17.1793V15.7793C22.566 15.7343 22.5592 15.6885 22.5403 15.6472C22.5214 15.6059 22.4912 15.5708 22.4532 15.546ZM16.5665 18.666C16.1256 18.6673 15.6941 18.5377 15.3269 18.2935C14.9597 18.0494 14.6733 17.7017 14.504 17.2945C14.3346 16.8874 14.2899 16.4391 14.3757 16.0066C14.4614 15.574 14.6736 15.1767 14.9854 14.8649C15.2972 14.553 15.6945 14.3408 16.1271 14.2551C16.5596 14.1694 17.0079 14.2141 17.415 14.3834C17.8222 14.5528 18.1699 14.8392 18.414 15.2064C18.6582 15.5736 18.7878 16.005 18.7865 16.446C18.7848 17.0342 18.5503 17.5979 18.1343 18.0138C17.7184 18.4298 17.1548 18.6642 16.5665 18.666Z" />
      </mask>
      <path
        d="M22.4532 15.546L22.8357 14.9597L22.7525 14.9054L22.6574 14.8764L22.4532 15.546ZM21.1198 15.1393L20.448 15.3357L20.554 15.6986L20.9156 15.8089L21.1198 15.1393ZM20.7332 14.1993L20.1166 13.8679L19.9378 14.2005L20.1176 14.5326L20.7332 14.1993ZM21.3998 12.9593L22.0164 13.2908L22.0298 13.2658L22.0412 13.2398L21.3998 12.9593ZM21.3332 12.666L20.8382 13.161L20.8565 13.1792L20.876 13.1961L21.3332 12.666ZM20.3665 11.6993L19.8523 12.1743L19.8617 12.1845L19.8715 12.1943L20.3665 11.6993ZM20.0732 11.6527L20.4075 12.2677L20.4146 12.2638L20.0732 11.6527ZM18.8465 12.3193L18.5035 12.9295L18.8408 13.1191L19.1808 12.9344L18.8465 12.3193ZM17.8932 11.9127L17.2236 12.1169L17.3326 12.4742L17.6902 12.5826L17.8932 11.9127ZM17.4865 10.5793L18.1561 10.3751L18.1518 10.361L18.1469 10.3471L17.4865 10.5793ZM17.2465 10.4193V11.1193H17.2663L17.2862 11.1182L17.2465 10.4193ZM15.8798 10.4193L15.8718 11.1193H15.8798V10.4193ZM15.6465 10.5927L16.3161 10.7969L16.319 10.7871L15.6465 10.5927ZM15.2398 11.926L15.4354 12.5981L15.7989 12.4924L15.9094 12.1302L15.2398 11.926ZM14.2798 12.326L13.9428 12.9395L14.2815 13.1256L14.6194 12.9381L14.2798 12.326ZM13.0665 11.6593L12.7245 12.2701L12.7294 12.2728L13.0665 11.6593ZM12.7798 11.706L13.268 12.2077L13.2834 12.1927L13.2979 12.1768L12.7798 11.706ZM11.7932 12.666L11.305 12.1643L11.2951 12.1739L11.2856 12.184L11.7932 12.666ZM11.7532 12.9593L11.135 13.2879L11.1397 13.2964L11.7532 12.9593ZM12.4198 14.1727L13.0236 14.5269L13.2248 14.184L13.0333 13.8356L12.4198 14.1727ZM11.9998 15.126L12.201 15.7965L12.5586 15.6892L12.6687 15.3324L11.9998 15.126ZM10.6665 15.526L10.8609 16.1985L10.8677 16.1965L10.6665 15.526ZM10.4932 15.7593H11.1932L11.1931 15.7512L10.4932 15.7593ZM10.4932 17.126H9.79318V17.1546L9.79551 17.1831L10.4932 17.126ZM10.6665 17.3327L10.8707 16.6631L10.8575 16.6591L10.8442 16.6556L10.6665 17.3327ZM11.9998 17.7393L12.6701 17.5374L12.5621 17.179L12.2041 17.0698L11.9998 17.7393ZM12.3998 18.6793L13.02 19.004L13.1962 18.6675L13.0101 18.3364L12.3998 18.6793ZM11.7332 19.9527L12.3446 20.2935L12.3491 20.2855L12.3533 20.2773L11.7332 19.9527ZM11.7732 20.2393L12.2682 19.7444L12.2679 19.7441L11.7732 20.2393ZM12.7398 21.206L12.2449 21.701L12.2455 21.7016L12.7398 21.206ZM13.0332 21.2527L13.3493 21.8772L13.3564 21.8736L13.3633 21.8699L13.0332 21.2527ZM14.2798 20.586L14.6114 19.9695L14.2808 19.7917L13.9498 19.9687L14.2798 20.586ZM15.2132 20.966L15.8837 20.7649L15.7738 20.3988L15.4065 20.2932L15.2132 20.966ZM15.6132 22.2993L14.9427 22.5005L14.9457 22.5103L14.9489 22.5201L15.6132 22.2993ZM15.8465 22.4727L15.827 23.1724L15.8367 23.1727H15.8465V22.4727ZM17.2132 22.4727V23.1727L17.2194 23.1726L17.2132 22.4727ZM17.4465 22.2993L18.1149 22.5074L18.1174 22.499L17.4465 22.2993ZM17.8532 20.9327L17.6573 20.2606L17.2911 20.3674L17.1823 20.733L17.8532 20.9327ZM18.7732 20.5527L19.1006 19.9339L18.768 19.758L18.4377 19.9383L18.7732 20.5527ZM20.0332 21.2193L20.3617 20.6012L20.3606 20.6006L20.0332 21.2193ZM20.3198 21.1727L19.8531 20.651L19.8319 20.67L19.8122 20.6906L20.3198 21.1727ZM21.3332 20.266L21.7999 20.7877L21.8609 20.7331L21.9076 20.666L21.3332 20.266ZM21.375 20.1327H20.675H21.375ZM21.3332 19.9993L20.7152 20.3281L20.7348 20.365L20.7587 20.3993L21.3332 19.9993ZM20.6665 18.746L20.0532 18.4085L19.8706 18.7403L20.0485 19.0747L20.6665 18.746ZM21.0532 17.8193L20.849 17.1498L20.4887 17.2597L20.3819 17.6208L21.0532 17.8193ZM22.3865 17.4127L22.1921 16.7401L22.1823 16.7431L22.3865 17.4127ZM22.5598 17.1793H21.8598L21.8599 17.1874L22.5598 17.1793ZM22.5598 15.7793L21.8662 15.685L21.8598 15.732V15.7793H22.5598ZM16.5665 18.666L16.5686 19.366L16.5665 18.666ZM18.7865 16.446L19.4865 16.4481L18.7865 16.446ZM22.6574 14.8764L21.3241 14.4698L20.9156 15.8089L22.249 16.2155L22.6574 14.8764ZM21.7917 14.943C21.6826 14.5694 21.5341 14.2084 21.3488 13.8661L20.1176 14.5326C20.2558 14.7879 20.3665 15.0571 20.448 15.3357L21.7917 14.943ZM21.3497 14.5308L22.0164 13.2908L20.7833 12.6279L20.1166 13.8679L21.3497 14.5308ZM22.0412 13.2398C22.1228 13.0531 22.1425 12.8452 22.0974 12.6466L20.7322 12.9568C20.711 12.8638 20.7202 12.7664 20.7585 12.6789L22.0412 13.2398ZM22.0974 12.6466C22.0522 12.4479 21.9446 12.269 21.7903 12.1359L20.876 13.1961C20.8037 13.1337 20.7533 13.0499 20.7322 12.9568L22.0974 12.6466ZM21.8282 12.171L20.8615 11.2044L19.8715 12.1943L20.8382 13.161L21.8282 12.171ZM20.8807 11.2243C20.7375 11.0693 20.5463 10.967 20.3379 10.9339L20.118 12.3165C20.016 12.3003 19.9224 12.2502 19.8523 12.1743L20.8807 11.2243ZM20.3379 10.9339C20.1295 10.9007 19.916 10.9386 19.7318 11.0416L20.4146 12.2638C20.3244 12.3141 20.2199 12.3327 20.118 12.3165L20.3379 10.9339ZM19.7389 11.0376L18.5123 11.7043L19.1808 12.9344L20.4074 12.2677L19.7389 11.0376ZM19.1895 11.7091C18.8431 11.5144 18.4765 11.358 18.0962 11.2428L17.6902 12.5826C17.9731 12.6683 18.2458 12.7847 18.5035 12.9295L19.1895 11.7091ZM18.5627 11.7085L18.1561 10.3751L16.817 10.7835L17.2236 12.1169L18.5627 11.7085ZM18.1469 10.3471C18.0793 10.1549 17.9511 9.98984 17.7815 9.87682L17.0049 11.0417C16.922 10.9864 16.8592 10.9056 16.8262 10.8115L18.1469 10.3471ZM17.7815 9.87682C17.612 9.76379 17.4103 9.70892 17.2069 9.72045L17.2862 11.1182C17.1866 11.1239 17.0879 11.097 17.0049 11.0417L17.7815 9.87682ZM17.2465 9.71933H15.8798V11.1193H17.2465V9.71933ZM15.8879 9.71938C15.6823 9.717 15.4816 9.78211 15.3165 9.90474L16.1514 11.0286C16.0706 11.0886 15.9724 11.1204 15.8718 11.1193L15.8879 9.71938ZM15.3165 9.90474C15.1515 10.0274 15.0312 10.2007 14.974 10.3983L16.319 10.7871C16.291 10.8837 16.2322 10.9686 16.1514 11.0286L15.3165 9.90474ZM14.977 10.3885L14.5703 11.7218L15.9094 12.1302L16.3161 10.7969L14.977 10.3885ZM15.0443 11.2539C14.6603 11.3656 14.29 11.5199 13.9403 11.7139L14.6194 12.9381C14.8779 12.7947 15.1516 12.6807 15.4354 12.5981L15.0443 11.2539ZM14.6169 11.7125L13.4036 11.0458L12.7294 12.2728L13.9428 12.9395L14.6169 11.7125ZM13.4085 11.0485C13.2244 10.9455 13.0108 10.9078 12.8026 10.9417L13.0275 12.3235C12.9234 12.3405 12.8166 12.3216 12.7245 12.2701L13.4085 11.0485ZM12.8026 10.9417C12.5943 10.9756 12.4037 11.0791 12.2618 11.2352L13.2979 12.1768C13.2269 12.2549 13.1316 12.3066 13.0275 12.3235L12.8026 10.9417ZM12.2917 11.2043L11.305 12.1643L12.2813 13.1677L13.268 12.2077L12.2917 11.2043ZM11.2856 12.184C11.1479 12.3289 11.0593 12.5135 11.0323 12.7116L12.4195 12.9008C12.4068 12.9936 12.3653 13.0801 12.3008 13.148L11.2856 12.184ZM11.0323 12.7116C11.0053 12.9097 11.0412 13.1113 11.1351 13.2878L12.3713 12.6308C12.4153 12.7135 12.4321 12.808 12.4195 12.9008L11.0323 12.7116ZM11.1397 13.2964L11.8064 14.5097L13.0333 13.8356L12.3667 12.6222L11.1397 13.2964ZM11.8161 13.8184C11.6124 14.1655 11.4496 14.535 11.331 14.9196L12.6687 15.3324C12.7555 15.0511 12.8746 14.7808 13.0236 14.5269L11.8161 13.8184ZM11.7987 14.4555L10.4654 14.8555L10.8677 16.1965L12.201 15.7965L11.7987 14.4555ZM10.4721 14.8535C10.2746 14.9106 10.1012 15.0309 9.97859 15.196L11.1024 16.0309C11.0424 16.1116 10.9576 16.1705 10.8609 16.1985L10.4721 14.8535ZM9.97859 15.196C9.85597 15.3611 9.79085 15.5618 9.79323 15.7674L11.1931 15.7512C11.1943 15.8519 11.1624 15.9501 11.1024 16.0309L9.97859 15.196ZM9.79318 15.7593V17.126H11.1932V15.7593H9.79318ZM9.79551 17.1831C9.81127 17.3757 9.88643 17.5587 10.0106 17.7067L11.0833 16.8071C11.1454 16.8811 11.183 16.9726 11.1908 17.0689L9.79551 17.1831ZM10.0106 17.7067C10.1348 17.8548 10.3019 17.9607 10.4888 18.0097L10.8442 16.6556C10.9376 16.6801 11.0212 16.733 11.0833 16.8071L10.0106 17.7067ZM10.4623 18.0022L11.7956 18.4089L12.2041 17.0698L10.8707 16.6631L10.4623 18.0022ZM11.3296 17.9413C11.4429 18.3174 11.5972 18.6799 11.7896 19.0223L13.0101 18.3364C12.8679 18.0833 12.7538 17.8154 12.6701 17.5374L11.3296 17.9413ZM11.7797 18.3546L11.113 19.628L12.3533 20.2773L13.02 19.004L11.7797 18.3546ZM11.1218 19.6118C11.0222 19.7905 10.9835 19.9968 11.0118 20.1994L12.3984 20.006C12.4122 20.1051 12.3933 20.2061 12.3446 20.2935L11.1218 19.6118ZM11.0118 20.1994C11.0401 20.4021 11.1337 20.59 11.2785 20.7346L12.2679 19.7441C12.3387 19.8149 12.3846 19.9068 12.3984 20.006L11.0118 20.1994ZM11.2782 20.7343L12.2449 21.701L13.2348 20.711L12.2682 19.7444L11.2782 20.7343ZM12.2455 21.7016C12.3876 21.8433 12.5708 21.9366 12.769 21.9681L12.9889 20.5855C13.0818 20.6003 13.1676 20.644 13.2342 20.7104L12.2455 21.7016ZM12.769 21.9681C12.9672 21.9997 13.1703 21.9678 13.3493 21.8772L12.717 20.6281C12.8009 20.5857 12.8961 20.5707 12.9889 20.5855L12.769 21.9681ZM13.3633 21.8699L14.6099 21.2033L13.9498 19.9687L12.7031 20.6354L13.3633 21.8699ZM13.9483 21.2025C14.2889 21.3857 14.6481 21.5319 15.0198 21.6388L15.4065 20.2932C15.1307 20.214 14.8642 20.1054 14.6114 19.9695L13.9483 21.2025ZM14.5427 21.1671L14.9427 22.5005L16.2837 22.0982L15.8837 20.7649L14.5427 21.1671ZM14.9489 22.5201C15.0106 22.7058 15.128 22.868 15.2851 22.9847L16.1199 21.8609C16.1935 21.9155 16.2485 21.9915 16.2775 22.0786L14.9489 22.5201ZM15.2851 22.9847C15.4422 23.1014 15.6314 23.1669 15.827 23.1724L15.866 21.7729C15.9577 21.7755 16.0463 21.8062 16.1199 21.8609L15.2851 22.9847ZM15.8465 23.1727H17.2132V21.7727H15.8465V23.1727ZM17.2194 23.1726C17.4198 23.1709 17.6146 23.1055 17.7755 22.9859L16.9407 21.8621C17.0178 21.8048 17.111 21.7735 17.207 21.7727L17.2194 23.1726ZM17.7755 22.9859C17.9365 22.8664 18.0553 22.6988 18.1149 22.5074L16.7782 22.0913C16.8067 21.9996 16.8636 21.9194 16.9407 21.8621L17.7755 22.9859ZM18.1174 22.499L18.5241 21.1323L17.1823 20.733L16.7756 22.0997L18.1174 22.499ZM18.0491 21.6047C18.417 21.4975 18.7723 21.3507 19.1087 21.167L18.4377 19.9383C18.19 20.0736 17.9283 20.1816 17.6573 20.2606L18.0491 21.6047ZM18.4458 21.1714L19.7058 21.8381L20.3606 20.6006L19.1006 19.9339L18.4458 21.1714ZM19.7047 21.8375C19.8861 21.9339 20.0941 21.9682 20.2968 21.9352L20.0719 20.5534C20.1711 20.5372 20.2729 20.554 20.3617 20.6012L19.7047 21.8375ZM20.2968 21.9352C20.4996 21.9022 20.686 21.8037 20.8274 21.6547L19.8122 20.6906C19.8815 20.6177 19.9727 20.5695 20.0719 20.5534L20.2968 21.9352ZM20.7866 21.6943L21.7999 20.7877L20.8664 19.7443L19.8531 20.651L20.7866 21.6943ZM21.9076 20.666C22.0166 20.5095 22.075 20.3234 22.075 20.1327H20.675C20.675 20.0373 20.7042 19.9443 20.7587 19.866L21.9076 20.666ZM22.075 20.1327C22.075 19.942 22.0166 19.7558 21.9076 19.5993L20.7587 20.3993C20.7042 20.3211 20.675 20.228 20.675 20.1327H22.075ZM21.9512 19.6706L21.2845 18.4173L20.0485 19.0747L20.7152 20.3281L21.9512 19.6706ZM21.2798 19.0835C21.4659 18.7453 21.615 18.388 21.7244 18.0178L20.3819 17.6208C20.301 17.8944 20.1908 18.1585 20.0532 18.4085L21.2798 19.0835ZM21.2574 18.4889L22.5907 18.0822L22.1823 16.7431L20.849 17.1498L21.2574 18.4889ZM22.5809 18.0851C22.7785 18.028 22.9518 17.9077 23.0744 17.7427L21.9506 16.9078C22.0106 16.827 22.0954 16.7681 22.1921 16.7402L22.5809 18.0851ZM23.0744 17.7427C23.1971 17.5776 23.2622 17.3769 23.2598 17.1712L21.8599 17.1874C21.8587 17.0868 21.8906 16.9886 21.9506 16.9078L23.0744 17.7427ZM23.2598 17.1793V15.7793H21.8598V17.1793H23.2598ZM23.2535 15.8736C23.2774 15.6974 23.2509 15.518 23.1769 15.3562L21.9037 15.9382C21.8675 15.8591 21.8545 15.7713 21.8662 15.685L23.2535 15.8736ZM23.1769 15.3562C23.103 15.1944 22.9847 15.057 22.8357 14.9597L22.0707 16.1322C21.9978 16.0847 21.9399 16.0174 21.9037 15.9382L23.1769 15.3562ZM16.5644 17.966C16.2621 17.9669 15.9663 17.878 15.7145 17.7106L14.9393 18.8764C15.422 19.1973 15.989 19.3677 16.5686 19.366L16.5644 17.966ZM15.7145 17.7106C15.4628 17.5432 15.2664 17.3048 15.1503 17.0257L13.8576 17.5634C14.0802 18.0985 14.4567 18.5555 14.9393 18.8764L15.7145 17.7106ZM15.1503 17.0257C15.0342 16.7465 15.0035 16.4392 15.0623 16.1426L13.689 15.8705C13.5764 16.4391 13.6351 17.0282 13.8576 17.5634L15.1503 17.0257ZM15.0623 16.1426C15.1211 15.8461 15.2666 15.5736 15.4803 15.3598L14.4904 14.3699C14.0806 14.7797 13.8016 15.302 13.689 15.8705L15.0623 16.1426ZM15.4803 15.3598C15.6941 15.146 15.9666 15.0005 16.2631 14.9418L15.991 13.5685C15.4225 13.6811 14.9002 13.96 14.4904 14.3699L15.4803 15.3598ZM16.2631 14.9418C16.5597 14.883 16.867 14.9136 17.1462 15.0298L17.6839 13.7371C17.1488 13.5145 16.5596 13.4558 15.991 13.5685L16.2631 14.9418ZM17.1462 15.0298C17.4253 15.1459 17.6637 15.3423 17.8311 15.594L18.9969 14.8188C18.676 14.3362 18.219 13.9597 17.6839 13.7371L17.1462 15.0298ZM17.8311 15.594C17.9985 15.8458 18.0874 16.1416 18.0865 16.4439L19.4865 16.4481C19.4882 15.8685 19.3179 15.3015 18.9969 14.8188L17.8311 15.594ZM18.0865 16.4439C18.0853 16.8472 17.9246 17.2337 17.6394 17.5189L18.6293 18.5088C19.176 17.9621 19.4842 17.2213 19.4865 16.4481L18.0865 16.4439ZM17.6394 17.5189C17.3542 17.804 16.9677 17.9648 16.5644 17.966L16.5686 19.366C17.3418 19.3637 18.0826 19.0555 18.6293 18.5088L17.6394 17.5189Z"
        fill="black" mask="url(#path-4-inside-1_445_14949)" />
    </g>
    <defs>
      <clipPath id="clip0_445_14949">
        <rect width="24" height="24" fill="white" />
      </clipPath>
    </defs>
  </symbol>
  <symbol id="phone" viewBox="0 0 19 19" fill="none">
    <path
      d="M5.71875 8.96836C6.49052 10.5621 8.47301 12.5226 10.0687 13.2902L13.125 11.659L17.9625 14.3215C17.8234 15.4069 17.2937 16.4044 16.4723 17.1274C15.6509 17.8504 14.5943 18.2494 13.5 18.2496C10.1185 18.2496 6.87548 16.9063 4.48439 14.5152C2.0933 12.1241 0.75 8.88112 0.75 5.49961C0.750247 4.40536 1.1492 3.34869 1.87221 2.52732C2.59522 1.70595 3.59274 1.17617 4.67812 1.03711L7.34062 5.88398L5.71875 8.96836Z"
      stroke="black" stroke-width="1.5" stroke-linecap="round" />
  </symbol>
  <symbol id="menu-close" viewBox="0 0 8 12" fill="none">
    <path d="M6 10L2 6L6 2" stroke="#1370A2" stroke-width="1.5" stroke-linecap="square" />
  </symbol>
  <symbol id="calendar" viewBox="0 0 24 24" fill="none">
    <path d="M20.25 3.75007L3.7502 3.75L3.75 20.25H20.25V3.75007Z" stroke="#1370A2"
      stroke-width="1.5" stroke-miterlimit="16" stroke-linecap="round" />
    <path d="M16.5 2.25V5.25" stroke="#1370A2" stroke-width="1.5" stroke-linecap="square"
      stroke-linejoin="round" />
    <path d="M7.5 2.25V5.25" stroke="#1370A2" stroke-width="1.5" stroke-linecap="square"
      stroke-linejoin="round" />
    <path d="M3.75 8.25H20.25" stroke="#1370A2" stroke-width="1.5" stroke-linecap="square"
      stroke-linejoin="round" />
  </symbol>
</svg>